<svg width="133" height="70" viewBox="0 0 133 70" fill="none" xmlns="http://www.w3.org/2000/svg">
<g clip-path="url(#clip0_359_144)">
<path d="M3.58568 62.8279C5.59388 62.8279 6.91355 64.3771 6.91355 66.3853C6.91355 68.3935 5.59388 69.9426 3.58568 69.9426C1.57748 69.9426 0.257812 68.3935 0.257812 66.3853C0.257812 64.3484 1.57748 62.8279 3.58568 62.8279ZM3.58568 63.3443C1.92175 63.3443 0.860271 64.6353 0.860271 66.3566C0.860271 68.0779 1.92175 69.3689 3.58568 69.3689C5.22093 69.3689 6.31109 68.0779 6.31109 66.3566C6.31109 64.6353 5.22093 63.3443 3.58568 63.3443ZM12.5365 66.959H11.016V69.7992H10.4422V62.9426H12.9955C14.1717 62.9426 15.0898 63.6885 15.0898 64.9508C15.0898 66.1844 14.2004 66.9017 13.1963 66.9303L15.1758 69.7992H14.4586L12.5365 66.959ZM12.9381 63.459H11.016V66.4139H12.9381C13.8562 66.4139 14.4586 65.7828 14.4586 64.9221C14.4586 64.0615 13.8562 63.459 12.9381 63.459ZM22.9217 68.1066H19.2783L18.5898 69.7992H17.9299L20.7414 62.9426H21.4586L24.2701 69.7992H23.6103L22.9217 68.1066ZM19.4504 67.5615H22.7496L21.1144 63.4877L19.4504 67.5615ZM27.9135 63.8607V69.7992H27.3398V62.9426H27.9422L32.2455 68.7951V62.9426H32.8193V69.7992H32.2455L27.9135 63.8607ZM39.8193 62.8279C40.9668 62.8279 41.7701 63.2869 42.4013 64.0041L41.9709 64.3197C41.4832 63.7459 40.7086 63.373 39.8193 63.373C38.2127 63.373 36.9504 64.6066 36.9504 66.3853C36.9504 68.1639 38.184 69.3976 39.8193 69.3976C40.7373 69.3976 41.4545 68.9385 41.8275 68.5656V66.9303H39.2168V66.3853H42.4013V68.7951C41.7988 69.4836 40.8808 69.9426 39.7906 69.9426C37.8398 69.9426 36.3193 68.5082 36.3193 66.3853C36.3193 64.2623 37.8685 62.8279 39.8193 62.8279ZM45.9586 62.9426H50.3193V63.4877H46.5611V66.041H50.2619V66.5861H46.5611V69.3115H50.3193V69.8566H45.9586V62.9426ZM58.2947 66.3566C58.2947 64.2336 59.8439 62.7992 61.766 62.7992C62.8849 62.7992 63.7168 63.2869 64.2906 64.0041L63.8029 64.3197C63.3726 63.7172 62.6267 63.3156 61.766 63.3156C60.1595 63.3156 58.9258 64.5492 58.9258 66.3279C58.9258 68.1066 60.1595 69.3402 61.766 69.3402C62.598 69.3402 63.3726 68.9385 63.8029 68.3361L64.2906 68.6517C63.6881 69.3976 62.8849 69.8853 61.766 69.8853C59.8439 69.9139 58.2947 68.4795 58.2947 66.3566ZM70.6021 62.8279C72.6103 62.8279 73.9299 64.3771 73.9299 66.3853C73.9299 68.3935 72.6103 69.9426 70.6021 69.9426C68.5939 69.9426 67.2742 68.3935 67.2742 66.3853C67.2742 64.3484 68.5939 62.8279 70.6021 62.8279ZM70.6021 63.3443C68.9381 63.3443 67.8767 64.6353 67.8767 66.3566C67.8767 68.0779 68.9381 69.3689 70.6021 69.3689C72.2373 69.3689 73.3275 68.0779 73.3275 66.3566C73.3275 64.6353 72.266 63.3443 70.6021 63.3443ZM77.4586 62.9426H78.0611V67.1599C78.0611 68.5369 78.7783 69.3976 80.1553 69.3976C81.5324 69.3976 82.2496 68.5656 82.2496 67.1599V62.9426H82.8521V67.1885C82.8521 68.8812 81.934 69.9426 80.184 69.9426C78.434 69.9426 77.516 68.8812 77.516 67.1885V62.9426H77.4586ZM87.1553 63.8607V69.7992H86.5816V62.9426H87.184L91.4873 68.7951V62.9426H92.0611V69.7992H91.4873L87.1553 63.8607ZM97.598 63.459H95.3603V62.914H100.438V63.459H98.2004V69.7992H97.598V63.459ZM105.746 66.873L103.02 62.9426H103.737L106.061 66.3279L108.385 62.9426H109.102L106.377 66.873V69.7992H105.774L105.746 66.873ZM122.672 63.6885L120.176 69.7705H119.946L117.422 63.6885V69.7705H116.848V62.914H117.709L120.061 68.5943L122.385 62.914H123.274V69.7705H122.672V63.6885ZM127.032 62.9426H129.213C131.336 62.9426 132.684 64.4918 132.684 66.3853C132.684 68.2787 131.336 69.8279 129.213 69.8279H127.032V62.9426ZM129.241 69.2541C131.049 69.2541 132.082 67.9631 132.082 66.3566C132.082 64.75 131.049 63.459 129.241 63.459H127.635V69.2541H129.241Z" fill="#D6BEA5"/>
<path d="M31.4717 1.46311V0.114746H30.1233C23.9553 0.114746 18.9348 5.13524 18.9348 11.3033V12.6516H20.2831C26.4512 12.6516 31.4717 7.63114 31.4717 1.46311ZM129.759 22.9508C127.808 19.9385 125.082 17.8443 121.64 16.6393C119.23 15.7787 115.357 15.3484 109.992 15.3484H102.074L102.619 18.8484H108.529C113.664 18.8484 117.365 19.1926 119.574 19.8811C122.558 20.7992 124.881 22.4631 126.545 24.9016C128.209 27.3402 129.041 30.2951 129.041 33.7377C129.041 37.0369 128.267 39.791 126.746 42.0861C125.226 44.3811 123.103 45.9303 120.406 46.8197C118.484 47.4221 115.07 47.7377 110.136 47.7377H105.345L105.861 51.1229H115.759C118.254 51.1229 120.722 50.6926 123.045 49.7746C123.476 49.6025 123.935 49.4016 124.336 49.1721C126.804 47.8811 128.812 45.8729 130.361 43.1475C131.91 40.4221 132.685 37.2664 132.685 33.6803C132.685 29.5205 131.738 25.9344 129.759 22.9508ZM95.0741 15.6066L81.3897 45.127L67.734 15.6066H66.4143L60.9061 51.9836H64.4922L68.1069 25.7623L81.0741 51.9836H81.7339L94.6725 25.7623L98.3159 51.9836H101.902L96.3938 15.6066H95.0741ZM45.6438 19.9959C48.0823 18.6188 50.7217 17.9303 53.5618 17.9303C56.1725 17.9303 58.5536 18.4467 60.734 19.5082C60.8774 19.5943 61.0208 19.6516 61.1643 19.7377L61.7094 16.0369C59.2422 14.9754 56.4881 14.4303 53.5044 14.4303C47.9676 14.4303 43.3774 16.209 39.7053 19.7951C38.1561 21.3156 36.9225 22.9795 36.0331 24.7869C35.1438 23.0082 33.9389 21.3443 32.4184 19.8525C28.7749 16.2377 24.2422 14.4303 18.82 14.4303C15.4922 14.4303 12.3651 15.2623 9.49625 16.9262C6.6274 18.5902 4.36101 20.8852 2.69707 23.8115C1.03314 26.7377 0.201172 29.9221 0.201172 33.3647C0.201172 38.5287 2.03724 42.918 5.68068 46.5328C9.32412 50.1475 13.7995 51.9836 19.1069 51.9836C24.3569 51.9836 28.7749 50.1762 32.4184 46.5041C33.9389 44.9836 35.1151 43.3484 36.0044 41.5697C36.7217 43.0615 37.611 44.4385 38.7299 45.7295C42.3446 49.8893 47.279 51.9836 53.5331 51.9836C54.5372 51.9836 55.5413 51.9262 56.4881 51.7828L57.0044 48.2828C55.9717 48.4836 54.8815 48.5984 53.7626 48.5984C49.2012 48.5984 45.443 47.1352 42.4594 44.209C39.4758 41.2828 37.984 37.668 37.984 33.3074C37.984 30.4385 38.6438 27.8279 39.9922 25.5041C41.3405 23.209 43.2053 21.3729 45.6438 19.9959ZM32.2463 40.9672C30.9266 43.291 29.0905 45.1557 26.7094 46.5041C24.3282 47.8525 21.7749 48.5123 18.9922 48.5123C14.8323 48.5123 11.2749 47.0492 8.34871 44.1229C5.39379 41.1967 3.93068 37.6106 3.93068 33.3647C3.93068 30.4959 4.59052 27.8852 5.93888 25.5615C7.25855 23.2377 9.1233 21.3729 11.5044 19.9959C13.8856 18.6188 16.3815 17.9303 19.0208 17.9303C21.7176 17.9303 24.2708 18.6188 26.652 19.9959C29.0618 21.3729 30.9266 23.209 32.2463 25.5041C33.5659 27.7992 34.2258 30.3811 34.2258 33.1926C34.2258 36.0328 33.5659 38.6434 32.2463 40.9672Z" fill="#FE6F61"/>
</g>
<defs>
<clipPath id="clip0_359_144">
<rect width="132.828" height="70" fill="white"/>
</clipPath>
</defs>
</svg>
