<svg width="245" height="82" viewBox="0 0 245 82" fill="none" xmlns="http://www.w3.org/2000/svg">
<path d="M25.5 1.5H235C240.247 1.5 244.5 5.7533 244.5 11V72C244.5 77.2467 240.247 81.5 235 81.5H25.5V1.5Z" stroke="#E2BDAF"/>
<path d="M0.5 11C0.5 5.75329 4.75329 1.5 10 1.5H25.5V81.5H10C4.75329 81.5 0.5 77.2467 0.5 72V11Z" fill="#E2BDAF" stroke="#E2BDAF"/>
<path d="M19 71.1532L8.97578 71.1532L8.97578 69.191L19 69.191L19 71.1532ZM19 65.5903L19 67.518L8.97578 67.518L8.97578 65.6591L15.3786 61.5145L8.97578 61.5145L8.97578 59.5937L19 59.5937L19 61.4112L12.4044 65.5903L19 65.5903ZM11.95 48.4885L11.95 50.8844C11.5645 51.169 11.2753 51.5086 11.0825 51.9034C10.8897 52.2935 10.7934 52.7387 10.7934 53.239C10.7934 53.6429 10.8691 54.0262 11.0206 54.3888C11.172 54.7514 11.3923 55.0727 11.6815 55.3526C11.9844 55.651 12.3355 55.8828 12.7349 56.048C13.1296 56.2086 13.5358 56.289 13.9535 56.289C14.8714 56.289 15.6425 55.9952 16.2667 55.4077C16.8864 54.8156 17.1962 54.0927 17.1962 53.239C17.1962 52.7479 17.1044 52.3073 16.9208 51.9171C16.7372 51.5224 16.471 51.2034 16.1222 50.9602L16.1222 48.5574C17.1457 49.0255 17.9145 49.6498 18.4286 50.43C18.9426 51.2103 19.1997 52.142 19.1997 53.2252C19.1997 53.978 19.0551 54.6733 18.7659 55.3113C18.4768 55.9447 18.0476 56.5139 17.4785 57.0187C17.0057 57.4456 16.4687 57.7692 15.8674 57.9895C15.2616 58.2098 14.6144 58.32 13.9259 58.32C13.2283 58.32 12.5673 58.1869 11.9431 57.9207C11.3143 57.6544 10.7429 57.2643 10.2288 56.7502C9.75146 56.2637 9.39116 55.7244 9.1479 55.1323C8.90005 54.5356 8.77612 53.8954 8.77612 53.2115C8.77612 52.1145 9.03774 51.1782 9.56098 50.4025C10.0842 49.6222 10.8806 48.9842 11.95 48.4885ZM19 42.2165L19 47.3043L8.97578 47.3043L8.97578 45.3628L17.2375 45.3628L17.2375 42.2165L19 42.2165ZM8.97578 41.3421L8.97578 39.38L14.759 39.38C15.6632 39.38 16.292 39.2859 16.6454 39.0977C16.9942 38.9049 17.1687 38.5768 17.1687 38.1132C17.1687 37.6496 16.9942 37.3237 16.6454 37.1355C16.292 36.9428 15.6632 36.8464 14.759 36.8464L8.97578 36.8464L8.97578 34.8842L15.3373 34.8842C16.0441 34.8842 16.5743 34.9232 16.9277 35.0013C17.2811 35.0793 17.5909 35.2101 17.8571 35.3937C18.3161 35.7058 18.6558 36.0822 18.8761 36.5228C19.0918 36.9634 19.1997 37.4936 19.1997 38.1132C19.1997 38.7328 19.0918 39.2629 18.8761 39.7036C18.6558 40.1442 18.3161 40.5206 17.8571 40.8327C17.5909 41.0163 17.2926 41.1471 16.9621 41.2251C16.6316 41.3031 16.09 41.3421 15.3373 41.3421L8.97578 41.3421ZM17.2788 29.9341C17.2788 28.8463 17.0126 28.0454 16.4802 27.5313C15.9478 27.0172 15.1147 26.7602 13.981 26.7602C12.9391 26.7602 12.129 27.0425 11.5507 27.607C10.9724 28.167 10.6832 28.9519 10.6832 29.9616L10.6832 31.2422L17.2788 31.2422L17.2788 29.9341ZM19 29.8102L19 33.2181L8.97578 33.2181L8.97578 29.8652C8.97578 28.9564 9.06758 28.229 9.25117 27.6828C9.43476 27.1366 9.74228 26.6409 10.1737 26.1957C10.6327 25.7229 11.1881 25.3649 11.8398 25.1216C12.4916 24.8784 13.2237 24.7567 14.0361 24.7567C14.9449 24.7567 15.7596 24.9266 16.4802 25.2662C17.1962 25.6059 17.786 26.0993 18.2496 26.7464C18.5204 27.1136 18.7131 27.5244 18.8279 27.9788C18.9426 28.4332 19 29.0437 19 29.8102ZM19 18.1405L19 23.5519L8.97578 23.5519L8.97578 18.1405L10.7383 18.1405L10.7383 21.6104L13.024 21.6104L13.024 18.1405L14.759 18.1405L14.759 21.6104L17.2375 21.6104L17.2375 18.1405L19 18.1405ZM15.8881 17.1078L15.8812 15.3177L16.0258 15.3177C16.448 15.3177 16.7877 15.2076 17.0447 14.9873C17.2972 14.7669 17.4234 14.4732 17.4234 14.106C17.4234 13.7113 17.3063 13.3992 17.0723 13.1697C16.8336 12.9402 16.5123 12.8254 16.1084 12.8254C15.4612 12.8254 14.9977 13.289 14.7177 14.2162C14.681 14.3355 14.6511 14.4296 14.6282 14.4984C14.3849 15.2787 14.0407 15.857 13.5955 16.2334C13.1457 16.6098 12.5788 16.7979 11.8949 16.7979C10.954 16.7979 10.199 16.5386 9.62983 16.02C9.06069 15.4967 8.77612 14.8014 8.77612 13.9339C8.77612 13.1215 9.03086 12.4743 9.54033 11.9924C10.0452 11.5104 10.7543 11.2419 11.6677 11.1869L11.6677 12.9631L11.5851 12.9631C11.2638 12.9631 11.0045 13.0595 10.8071 13.2523C10.6098 13.4451 10.5111 13.6975 10.5111 14.0096C10.5111 14.3309 10.6121 14.5856 10.814 14.7738C11.016 14.9574 11.2914 15.0492 11.6402 15.0492C11.7871 15.0492 11.9179 15.0309 12.0326 14.9941C12.1428 14.9528 12.2437 14.8909 12.3355 14.8083C12.5421 14.6201 12.7326 14.2162 12.907 13.5965C12.9804 13.3211 13.0424 13.11 13.0929 12.9631C13.3269 12.2747 13.662 11.7675 14.098 11.4416C14.5341 11.1111 15.0917 10.9459 15.771 10.9459C16.8038 10.9459 17.6345 11.2328 18.2633 11.8065C18.8875 12.3802 19.1997 13.1421 19.1997 14.0922C19.1997 14.9873 18.8967 15.7102 18.2909 16.2609C17.685 16.8117 16.8841 17.094 15.8881 17.1078Z" fill="#FFFBF9"/>
<path d="M54.3051 23.7534C54.3051 22.0712 53.765 20.6437 52.6846 19.4708C51.6043 18.2824 50.308 17.6883 48.7955 17.6883C47.206 17.6883 45.8864 18.2439 44.837 19.355C43.803 20.4508 43.286 21.8552 43.286 23.5682C43.286 25.2658 43.7953 26.6625 44.8138 27.7583C45.8324 28.854 47.1288 29.4019 48.7029 29.4019C50.2462 29.4019 51.5658 28.8463 52.6615 27.7351C53.7572 26.6239 54.3051 25.2967 54.3051 23.7534ZM48.5641 46H41.6887L49.328 34.5179C48.7261 34.6414 48.2322 34.734 47.8464 34.7957C47.4606 34.842 47.0979 34.8651 46.7584 34.8651C43.9959 34.8651 41.6501 33.7617 39.721 31.5548C37.8073 29.3479 36.8504 26.6548 36.8504 23.4756C36.8504 22.1793 37.1051 20.852 37.6144 19.4939C38.1391 18.1358 38.849 16.9166 39.7441 15.8363C40.9633 14.401 42.2983 13.3516 43.749 12.688C45.2151 12.0089 46.8973 11.6694 48.7955 11.6694C50.416 11.6694 51.9439 11.9626 53.3791 12.5491C54.8144 13.1355 56.0876 13.9844 57.1988 15.0955C58.2945 16.1913 59.1433 17.4413 59.7452 18.8457C60.3471 20.2501 60.648 21.6854 60.648 23.1515C60.648 24.8183 60.324 26.5005 59.6758 28.1981C59.0276 29.8803 57.7698 32.1181 55.9024 34.9114L48.5641 46ZM71.0884 24.0544V34.1938C71.0884 36.3853 71.5051 38.0135 72.3385 39.0783C73.1873 40.1278 74.4914 40.6525 76.2508 40.6525C78.0255 40.6525 79.3373 40.1123 80.1862 39.032C81.035 37.9517 81.4594 36.2772 81.4594 34.0086V23.5682C81.4594 22.6114 81.4131 21.8937 81.3205 21.4153C81.2433 20.9369 81.1044 20.5202 80.9038 20.1653C80.4254 19.3627 79.7849 18.7454 78.9824 18.3133C78.1953 17.8657 77.3002 17.642 76.2971 17.642C74.5686 17.642 73.2645 18.1821 72.3848 19.2624C71.5206 20.3273 71.0884 21.9246 71.0884 24.0544ZM64.4908 24.1007C64.4908 22.0018 64.6529 20.389 64.977 19.2624C65.3011 18.1204 65.8335 17.0787 66.5743 16.1373C67.7318 14.6094 69.113 13.4751 70.718 12.7343C72.3231 11.9935 74.1827 11.6231 76.2971 11.6231C78.2725 11.6231 80.0858 12.0167 81.7372 12.8037C83.4039 13.5754 84.8469 14.7174 86.0661 16.2299C86.7606 17.0941 87.2622 18.1435 87.5708 19.3782C87.8949 20.6128 88.057 22.2178 88.057 24.1933V34.1938C88.057 36.2927 87.8949 37.9209 87.5708 39.0783C87.2467 40.2204 86.7143 41.2621 85.9735 42.2035C84.816 43.7159 83.4348 44.8425 81.8298 45.5833C80.2402 46.3087 78.3805 46.6713 76.2508 46.6713C74.2753 46.6713 72.4542 46.2855 70.7875 45.5139C69.1362 44.7268 67.7009 43.577 66.4817 42.0646C65.7872 41.2004 65.2779 40.1586 64.9538 38.9394C64.6452 37.7048 64.4908 36.1075 64.4908 34.1475V24.1007Z" fill="#E2BDAF"/>
<path d="M47.0645 69.5586C48.6074 69.5586 49.7435 69.181 50.4727 68.4258C51.2018 67.6706 51.5664 66.4889 51.5664 64.8809C51.5664 63.403 51.166 62.2539 50.3652 61.4336C49.571 60.6133 48.4577 60.2031 47.0254 60.2031H45.209V69.5586H47.0645ZM47.2402 72H42.4062V57.7812H47.1621C48.4512 57.7812 49.4831 57.9115 50.2578 58.1719C51.0326 58.4323 51.7357 58.8685 52.3672 59.4805C53.0378 60.1315 53.5456 60.9193 53.8906 61.8438C54.2357 62.7682 54.4082 63.8066 54.4082 64.959C54.4082 66.248 54.1673 67.4036 53.6855 68.4258C53.2038 69.4414 52.5039 70.278 51.5859 70.9355C51.0651 71.3197 50.4824 71.5931 49.8379 71.7559C49.1934 71.9186 48.3275 72 47.2402 72ZM66.1816 66.3848L64.502 61.8047L62.7832 66.3848H66.1816ZM61.8262 69.0215L60.7227 72H57.8418L63.3594 57.7812H65.7617L71.2012 72H68.2227L67.0996 69.0215H61.8262ZM80.1914 66.8828V72H77.4082V66.8828L73.3359 57.7812H76.3926L78.8535 63.9043L81.2949 57.7812H84.332L80.1914 66.8828Z" fill="#E2BDAF"/>
<path d="M111.458 19.8955L111.35 11.7578H112.251V21H111.16L106.088 12.8496L106.189 21H105.294V11.7578H106.386L111.458 19.8955ZM114.473 16.3345C114.473 17.4601 114.839 18.4038 115.571 19.1655C116.303 19.9272 117.207 20.3081 118.282 20.3081C119.331 20.3081 120.218 19.923 120.941 19.1528C121.665 18.3826 122.027 17.4347 122.027 16.3091C122.027 15.2596 121.654 14.3561 120.91 13.5986C120.165 12.8369 119.268 12.4561 118.218 12.4561C117.791 12.4561 117.378 12.5301 116.98 12.6782C116.587 12.8221 116.223 13.0358 115.889 13.3193C115.449 13.6917 115.102 14.1466 114.848 14.6841C114.598 15.2215 114.473 15.7716 114.473 16.3345ZM113.521 16.3218C113.521 15.6785 113.644 15.0649 113.889 14.481C114.139 13.897 114.499 13.3743 114.968 12.9131C115.421 12.4688 115.918 12.1344 116.46 11.9102C117.006 11.6859 117.596 11.5737 118.231 11.5737C118.878 11.5737 119.477 11.688 120.027 11.9165C120.582 12.1408 121.087 12.4772 121.544 12.9258C122.014 13.387 122.368 13.9033 122.604 14.4746C122.841 15.0459 122.96 15.6616 122.96 16.3218C122.96 16.9777 122.858 17.5807 122.655 18.1309C122.452 18.6768 122.147 19.174 121.741 19.6226C121.271 20.1388 120.74 20.5282 120.148 20.7905C119.556 21.0529 118.912 21.1841 118.218 21.1841C116.889 21.1841 115.774 20.7186 114.873 19.7876C113.972 18.8524 113.521 17.6971 113.521 16.3218ZM135.37 19.8955C135.56 20.0225 135.772 20.1156 136.004 20.1748C136.241 20.2298 136.523 20.2573 136.849 20.2573H136.969V21.0635C136.948 21.0677 136.921 21.0698 136.887 21.0698C136.705 21.0825 136.58 21.0889 136.512 21.0889C136.22 21.0889 135.909 21.0339 135.579 20.9238C135.253 20.8096 134.944 20.6488 134.652 20.4414C134.276 20.6868 133.876 20.873 133.453 21C133.034 21.1227 132.594 21.1841 132.132 21.1841C130.812 21.1841 129.697 20.7186 128.787 19.7876C127.877 18.8524 127.422 17.6971 127.422 16.3218C127.422 15.6785 127.545 15.0649 127.791 14.481C128.04 13.897 128.4 13.3743 128.87 12.9131C129.322 12.4688 129.82 12.1344 130.361 11.9102C130.907 11.6859 131.498 11.5737 132.132 11.5737C133.491 11.5737 134.618 12.035 135.516 12.9575C136.413 13.88 136.861 15.0522 136.861 16.4741C136.861 17.1597 136.739 17.7839 136.493 18.3467C136.248 18.9053 135.873 19.4215 135.37 19.8955ZM134.665 19.3242C135.076 18.9137 135.389 18.4525 135.604 17.9404C135.82 17.4242 135.928 16.8804 135.928 16.3091C135.928 15.2596 135.556 14.3561 134.811 13.5986C134.066 12.8369 133.169 12.4561 132.12 12.4561C131.104 12.4561 130.226 12.839 129.485 13.605C128.745 14.3709 128.375 15.2638 128.375 16.2837C128.375 16.4826 128.387 16.6815 128.413 16.8804C128.438 17.075 128.478 17.2739 128.533 17.4771C128.863 17.3205 129.187 17.2062 129.504 17.1343C129.822 17.0581 130.156 17.02 130.507 17.02C131.231 17.02 131.897 17.1851 132.507 17.5151C133.12 17.841 133.84 18.444 134.665 19.3242ZM133.922 19.8701C133.144 19.0576 132.513 18.5265 132.031 18.2769C131.553 18.0229 131.013 17.896 130.412 17.896C130.171 17.896 129.923 17.9277 129.669 17.9912C129.42 18.0547 129.145 18.1562 128.844 18.2959C129.191 18.9307 129.661 19.4279 130.253 19.7876C130.85 20.1473 131.493 20.3271 132.183 20.3271C132.467 20.3271 132.75 20.2891 133.034 20.2129C133.317 20.1367 133.613 20.0225 133.922 19.8701ZM137.985 11.7578H138.893V17.604C138.893 18.0568 138.91 18.3953 138.943 18.6196C138.981 18.8439 139.043 19.0428 139.127 19.2163C139.292 19.5675 139.534 19.8426 139.851 20.0415C140.173 20.2404 140.535 20.3398 140.937 20.3398C141.635 20.3398 142.151 20.1029 142.485 19.6289C142.82 19.1507 142.987 18.4123 142.987 17.4136V11.7578H143.882V17.6357C143.882 18.8333 143.643 19.7262 143.165 20.3145C142.691 20.9027 141.969 21.1968 141 21.1968C139.963 21.1968 139.201 20.909 138.715 20.3335C138.228 19.758 137.985 18.8587 137.985 17.6357V11.7578ZM146.389 15.9028H150.274V16.8169H146.389V20.105H150.274V21H145.475V11.7578H150.274V12.6655H146.389V15.9028ZM151.505 18.3594H152.381C152.398 18.9307 152.559 19.3856 152.864 19.7241C153.173 20.0627 153.577 20.2319 154.076 20.2319C154.614 20.2319 155.039 20.0648 155.352 19.7305C155.669 19.3919 155.828 18.9349 155.828 18.3594C155.828 17.5215 155.181 16.8888 153.886 16.4614C153.784 16.4276 153.708 16.4022 153.657 16.3853C152.98 16.1525 152.491 15.8584 152.191 15.5029C151.895 15.1432 151.747 14.6756 151.747 14.1001C151.747 13.3638 151.975 12.7607 152.432 12.291C152.893 11.8213 153.488 11.5864 154.216 11.5864C154.91 11.5864 155.46 11.8001 155.866 12.2275C156.272 12.6549 156.499 13.2559 156.545 14.0303H155.688C155.642 13.5267 155.492 13.1395 155.238 12.8687C154.984 12.5936 154.643 12.4561 154.216 12.4561C153.759 12.4561 153.384 12.6063 153.092 12.9067C152.805 13.203 152.661 13.5817 152.661 14.043C152.661 14.2842 152.703 14.4937 152.788 14.6714C152.876 14.8449 153.016 15.0036 153.207 15.1475C153.401 15.2913 153.774 15.4521 154.324 15.6299C154.641 15.7314 154.882 15.814 155.047 15.8774C155.648 16.1102 156.08 16.4085 156.342 16.7725C156.609 17.1322 156.742 17.6061 156.742 18.1943C156.742 19.0915 156.497 19.8151 156.006 20.3652C155.519 20.9111 154.872 21.1841 154.063 21.1841C153.31 21.1841 152.699 20.9259 152.229 20.4097C151.759 19.8892 151.518 19.2057 151.505 18.3594ZM160.018 21H159.11V12.6655H157.263V11.7578H161.865V12.6655H160.018V21ZM163.699 21H162.792V11.7578H163.699V21ZM165.902 16.3345C165.902 17.4601 166.268 18.4038 167 19.1655C167.732 19.9272 168.636 20.3081 169.71 20.3081C170.76 20.3081 171.646 19.923 172.37 19.1528C173.094 18.3826 173.456 17.4347 173.456 16.3091C173.456 15.2596 173.083 14.3561 172.338 13.5986C171.594 12.8369 170.696 12.4561 169.647 12.4561C169.22 12.4561 168.807 12.5301 168.409 12.6782C168.016 12.8221 167.652 13.0358 167.317 13.3193C166.877 13.6917 166.53 14.1466 166.276 14.6841C166.027 15.2215 165.902 15.7716 165.902 16.3345ZM164.95 16.3218C164.95 15.6785 165.072 15.0649 165.318 14.481C165.568 13.897 165.927 13.3743 166.397 12.9131C166.85 12.4688 167.347 12.1344 167.889 11.9102C168.435 11.6859 169.025 11.5737 169.66 11.5737C170.307 11.5737 170.906 11.688 171.456 11.9165C172.01 12.1408 172.516 12.4772 172.973 12.9258C173.443 13.387 173.796 13.9033 174.033 14.4746C174.27 15.0459 174.389 15.6616 174.389 16.3218C174.389 16.9777 174.287 17.5807 174.084 18.1309C173.881 18.6768 173.576 19.174 173.17 19.6226C172.7 20.1388 172.169 20.5282 171.577 20.7905C170.984 21.0529 170.341 21.1841 169.647 21.1841C168.318 21.1841 167.203 20.7186 166.302 19.7876C165.4 18.8524 164.95 17.6971 164.95 16.3218ZM181.79 19.8955L181.682 11.7578H182.583V21H181.492L176.42 12.8496L176.521 21H175.626V11.7578H176.718L181.79 19.8955ZM183.828 18.3594H184.704C184.721 18.9307 184.881 19.3856 185.186 19.7241C185.495 20.0627 185.899 20.2319 186.398 20.2319C186.936 20.2319 187.361 20.0648 187.674 19.7305C187.992 19.3919 188.15 18.9349 188.15 18.3594C188.15 17.5215 187.503 16.8888 186.208 16.4614C186.106 16.4276 186.03 16.4022 185.979 16.3853C185.302 16.1525 184.814 15.8584 184.513 15.5029C184.217 15.1432 184.069 14.6756 184.069 14.1001C184.069 13.3638 184.297 12.7607 184.754 12.291C185.216 11.8213 185.81 11.5864 186.538 11.5864C187.232 11.5864 187.782 11.8001 188.188 12.2275C188.595 12.6549 188.821 13.2559 188.868 14.0303H188.011C187.964 13.5267 187.814 13.1395 187.56 12.8687C187.306 12.5936 186.965 12.4561 186.538 12.4561C186.081 12.4561 185.707 12.6063 185.415 12.9067C185.127 13.203 184.983 13.5817 184.983 14.043C184.983 14.2842 185.025 14.4937 185.11 14.6714C185.199 14.8449 185.338 15.0036 185.529 15.1475C185.723 15.2913 186.096 15.4521 186.646 15.6299C186.963 15.7314 187.205 15.814 187.37 15.8774C187.971 16.1102 188.402 16.4085 188.665 16.7725C188.931 17.1322 189.064 17.6061 189.064 18.1943C189.064 19.0915 188.819 19.8151 188.328 20.3652C187.841 20.9111 187.194 21.1841 186.386 21.1841C185.632 21.1841 185.021 20.9259 184.551 20.4097C184.082 19.8892 183.84 19.2057 183.828 18.3594ZM193.812 21H192.854L196.44 11.7578H197.532L201.106 21H200.135L199.03 18.0991H194.917L193.812 21ZM198.713 17.2676L196.961 12.6274L195.234 17.2676H198.713ZM201.677 18.3594H202.553C202.57 18.9307 202.731 19.3856 203.036 19.7241C203.345 20.0627 203.749 20.2319 204.248 20.2319C204.785 20.2319 205.211 20.0648 205.524 19.7305C205.841 19.3919 206 18.9349 206 18.3594C206 17.5215 205.353 16.8888 204.058 16.4614C203.956 16.4276 203.88 16.4022 203.829 16.3853C203.152 16.1525 202.663 15.8584 202.363 15.5029C202.067 15.1432 201.918 14.6756 201.918 14.1001C201.918 13.3638 202.147 12.7607 202.604 12.291C203.065 11.8213 203.66 11.5864 204.388 11.5864C205.082 11.5864 205.632 11.8001 206.038 12.2275C206.444 12.6549 206.671 13.2559 206.717 14.0303H205.86C205.814 13.5267 205.664 13.1395 205.41 12.8687C205.156 12.5936 204.815 12.4561 204.388 12.4561C203.931 12.4561 203.556 12.6063 203.264 12.9067C202.976 13.203 202.833 13.5817 202.833 14.043C202.833 14.2842 202.875 14.4937 202.959 14.6714C203.048 14.8449 203.188 15.0036 203.378 15.1475C203.573 15.2913 203.945 15.4521 204.496 15.6299C204.813 15.7314 205.054 15.814 205.219 15.8774C205.82 16.1102 206.252 16.4085 206.514 16.7725C206.781 17.1322 206.914 17.6061 206.914 18.1943C206.914 19.0915 206.669 19.8151 206.178 20.3652C205.691 20.9111 205.044 21.1841 204.235 21.1841C203.482 21.1841 202.871 20.9259 202.401 20.4097C201.931 19.8892 201.69 19.2057 201.677 18.3594ZM209.098 18.1499V21H208.203V11.7578H209.098V16.8931L213.376 11.7578H214.455L210.723 16.2266L214.392 21H213.274L210.139 16.9058L209.098 18.1499ZM216.112 15.9028H219.997V16.8169H216.112V20.105H219.997V21H215.198V11.7578H219.997V12.6655H216.112V15.9028ZM222.618 12.6401V20.1304H224.503C225.68 20.1304 226.585 19.8003 227.22 19.1401C227.855 18.48 228.172 17.5448 228.172 16.3345C228.172 15.7293 228.064 15.1707 227.849 14.6587C227.633 14.1466 227.324 13.7171 226.922 13.3701C226.621 13.1077 226.285 12.9215 225.913 12.8115C225.54 12.6973 224.999 12.6401 224.288 12.6401H222.618ZM221.723 11.7578H224.351C225.075 11.7578 225.682 11.8298 226.173 11.9736C226.668 12.1175 227.104 12.3481 227.48 12.6655C228.009 13.1099 228.42 13.6536 228.712 14.2969C229.004 14.9401 229.15 15.6278 229.15 16.3599C229.15 17.1766 228.989 17.9214 228.667 18.5942C228.346 19.2629 227.891 19.8088 227.303 20.2319C226.913 20.507 226.492 20.7038 226.04 20.8223C225.587 20.9408 224.889 21 223.945 21H221.723V11.7578Z" fill="#E2BDAF"/>
<path d="M108.329 46H105.3V30.3594H109.35L113.324 41.7354L117.288 30.3594H121.338V46H118.319L118.427 34.6455L114.474 46H112.164L108.2 34.6455L108.329 46ZM126.473 38.04C126.473 38.7132 126.584 39.3398 126.806 39.9199C127.028 40.5 127.357 41.0299 127.794 41.5098C128.274 42.0326 128.818 42.4372 129.427 42.7236C130.035 43.0029 130.666 43.1426 131.317 43.1426C132.685 43.1426 133.831 42.6556 134.755 41.6816C135.686 40.7077 136.151 39.4938 136.151 38.04C136.151 36.708 135.682 35.5729 134.744 34.6348C133.813 33.6895 132.692 33.2168 131.382 33.2168C130.014 33.2168 128.854 33.6859 127.901 34.624C126.949 35.5622 126.473 36.7008 126.473 38.04ZM123.261 38.1475C123.261 37.2881 123.375 36.4788 123.604 35.7197C123.834 34.9535 124.174 34.2373 124.625 33.5713C125.398 32.4469 126.369 31.5804 127.536 30.9717C128.703 30.3558 129.978 30.0479 131.36 30.0479C132.399 30.0479 133.398 30.2484 134.357 30.6494C135.324 31.0505 136.187 31.627 136.946 32.3789C137.727 33.1595 138.321 34.0368 138.729 35.0107C139.138 35.9847 139.342 37.0088 139.342 38.083C139.342 39.2002 139.148 40.2493 138.762 41.2305C138.382 42.2116 137.82 43.0817 137.075 43.8408C136.323 44.6357 135.446 45.248 134.443 45.6777C133.448 46.1003 132.406 46.3115 131.317 46.3115C130.15 46.3115 129.076 46.1038 128.095 45.6885C127.114 45.2731 126.243 44.6572 125.484 43.8408C124.754 43.0674 124.199 42.2008 123.819 41.2412C123.447 40.2744 123.261 39.2432 123.261 38.1475ZM144.272 46H141.265V30.3594H144.165L150.632 40.3496V30.3594H153.629V46H150.793L144.272 35.709V46ZM164.704 46H156.261V30.3594H164.704V33.1094H159.29V36.6758H164.704V39.3828H159.29V43.25H164.704V46ZM172.868 40.3711V46H169.807V40.3711L165.327 30.3594H168.689L171.396 37.0947L174.082 30.3594H177.423L172.868 40.3711ZM181.516 38.8242V41.3594H175.973V38.8242H181.516ZM186.79 36.6543H187.145C187.99 36.6543 188.62 36.5039 189.035 36.2031C189.451 35.8952 189.658 35.4368 189.658 34.8281C189.658 34.2409 189.461 33.8076 189.067 33.5283C188.674 33.249 188.061 33.1094 187.23 33.1094H186.79V36.6543ZM186.79 43.25H187.714C188.645 43.25 189.329 43.096 189.766 42.7881C190.202 42.473 190.421 41.9896 190.421 41.3379C190.421 40.6289 190.192 40.0918 189.733 39.7266C189.275 39.3613 188.602 39.1787 187.714 39.1787H186.79V43.25ZM183.847 46V30.3594H187.209C187.889 30.3594 188.43 30.388 188.831 30.4453C189.232 30.4954 189.587 30.585 189.895 30.7139C190.754 31.0648 191.413 31.5697 191.871 32.2285C192.329 32.8874 192.559 33.6572 192.559 34.5381C192.559 35.2686 192.423 35.8916 192.15 36.4072C191.878 36.9229 191.477 37.3132 190.947 37.5781C191.721 37.8073 192.329 38.2477 192.773 38.8994C193.217 39.5511 193.439 40.3281 193.439 41.2305C193.439 41.9609 193.303 42.6484 193.031 43.293C192.759 43.9303 192.383 44.4603 191.903 44.8828C191.424 45.2839 190.886 45.5703 190.292 45.7422C189.698 45.9141 188.856 46 187.768 46H183.847ZM202.162 39.8232L200.314 34.7852L198.424 39.8232H202.162ZM197.371 42.7236L196.157 46H192.988L199.058 30.3594H201.7L207.684 46H204.407L203.172 42.7236H197.371ZM222.669 35H218.931C218.487 34.3984 217.957 33.9473 217.341 33.6465C216.732 33.3457 216.037 33.1953 215.257 33.1953C214.627 33.1953 214.029 33.3135 213.463 33.5498C212.897 33.7861 212.396 34.1299 211.959 34.5811C211.493 35.0537 211.132 35.6016 210.874 36.2246C210.623 36.8405 210.498 37.4743 210.498 38.126C210.498 39.5583 210.956 40.7614 211.873 41.7354C212.797 42.7021 213.925 43.1855 215.257 43.1855C216.023 43.1855 216.711 43.0423 217.319 42.7559C217.935 42.4694 218.433 42.054 218.812 41.5098H222.562C221.831 43.1068 220.857 44.3063 219.64 45.1084C218.422 45.9105 216.968 46.3115 215.278 46.3115C214.104 46.3115 213.019 46.0859 212.023 45.6348C211.035 45.1836 210.147 44.514 209.359 43.626C208.693 42.8883 208.188 42.0505 207.845 41.1123C207.501 40.167 207.329 39.1572 207.329 38.083C207.329 36.9945 207.537 35.9632 207.952 34.9893C208.368 34.0081 208.976 33.1165 209.778 32.3145C210.537 31.5697 211.379 31.0075 212.303 30.6279C213.234 30.2412 214.233 30.0479 215.3 30.0479C217.011 30.0479 218.472 30.4561 219.683 31.2725C220.9 32.0889 221.896 33.3314 222.669 35ZM227.621 38.2334L232.348 30.3594H235.753L230.736 38.126L235.753 46H232.348L227.621 38.2334ZM227.578 46H224.517V30.3594H227.578V46ZM120.693 63.6855C120.693 63.7428 120.697 63.8324 120.704 63.9541C120.711 64.0687 120.715 64.1546 120.715 64.2119C120.715 64.8851 120.654 65.5117 120.532 66.0918C120.41 66.6647 120.224 67.2054 119.974 67.7139C119.236 69.182 118.23 70.3171 116.955 71.1191C115.688 71.9141 114.252 72.3115 112.647 72.3115C111.466 72.3115 110.374 72.0859 109.371 71.6348C108.368 71.1836 107.466 70.514 106.664 69.626C105.998 68.8812 105.49 68.0361 105.139 67.0908C104.788 66.1455 104.612 65.1429 104.612 64.083C104.612 62.9945 104.824 61.9632 105.246 60.9893C105.669 60.0081 106.288 59.1165 107.104 58.3145C107.878 57.5482 108.737 56.9788 109.683 56.6064C110.635 56.234 111.688 56.0479 112.841 56.0479C114.524 56.0479 115.978 56.4596 117.202 57.2832C118.427 58.1068 119.372 59.3099 120.038 60.8926H116.321C115.87 60.3268 115.337 59.9043 114.721 59.625C114.112 59.3385 113.428 59.1953 112.669 59.1953C111.33 59.1953 110.195 59.6787 109.264 60.6455C108.333 61.6123 107.867 62.7868 107.867 64.1689C107.867 65.5726 108.336 66.7578 109.274 67.7246C110.22 68.6842 111.38 69.1641 112.755 69.1641C113.707 69.1641 114.57 68.9062 115.344 68.3906C116.124 67.875 116.701 67.1803 117.073 66.3066H110.929V63.6855H120.693ZM122.616 56.3594H125.678V65.3828C125.678 66.7936 125.825 67.7747 126.118 68.3262C126.419 68.8704 126.931 69.1426 127.654 69.1426C128.378 69.1426 128.886 68.8704 129.18 68.3262C129.48 67.7747 129.631 66.7936 129.631 65.3828V56.3594H132.692V66.2852C132.692 67.388 132.632 68.2152 132.51 68.7666C132.388 69.318 132.184 69.8014 131.897 70.2168C131.41 70.9329 130.823 71.4629 130.136 71.8066C129.448 72.1432 128.621 72.3115 127.654 72.3115C126.688 72.3115 125.86 72.1432 125.173 71.8066C124.485 71.4629 123.898 70.9329 123.411 70.2168C123.125 69.8014 122.921 69.3359 122.799 68.8203C122.677 68.3047 122.616 67.4596 122.616 66.2852V56.3594ZM142.35 65.8232L140.502 60.7852L138.611 65.8232H142.35ZM137.559 68.7236L136.345 72H133.176L139.245 56.3594H141.888L147.871 72H144.595L143.359 68.7236H137.559ZM151.609 63.9648H152.286C153.525 63.9648 154.463 63.7428 155.101 63.2988C155.745 62.8477 156.067 62.1924 156.067 61.333C156.067 60.5023 155.799 59.89 155.262 59.4961C154.725 59.1022 153.887 58.9053 152.748 58.9053H151.609V63.9648ZM151.609 72H148.548V56.3594H152.265C153.446 56.3594 154.324 56.4023 154.896 56.4883C155.477 56.5671 155.971 56.6995 156.379 56.8857C157.267 57.3011 157.944 57.8812 158.409 58.626C158.875 59.3708 159.107 60.2445 159.107 61.2471C159.107 62.4574 158.774 63.485 158.108 64.3301C157.442 65.168 156.536 65.7015 155.391 65.9307L159.301 72H155.648L151.609 64.7383V72ZM168.131 65.8232L166.283 60.7852L164.393 65.8232H168.131ZM163.34 68.7236L162.126 72H158.957L165.026 56.3594H167.669L173.652 72H170.376L169.141 68.7236H163.34ZM177.337 72H174.329V56.3594H177.229L183.696 66.3496V56.3594H186.693V72H183.857L177.337 61.709V72ZM197.113 56.3594V59.1094H194.159V72H191.108V59.1094H188.154V56.3594H197.113ZM206.985 72H198.542V56.3594H206.985V59.1094H201.571V62.6758H206.985V65.3828H201.571V69.25H206.985V72ZM217.985 72H209.542V56.3594H217.985V59.1094H212.571V62.6758H217.985V65.3828H212.571V69.25H217.985V72Z" fill="#E2BDAF"/>
</svg>
