<svg width="133" height="70" viewBox="0 0 133 70" fill="none" xmlns="http://www.w3.org/2000/svg">
<g clip-path="url(#clip0_359_622)">
<path d="M3.58568 62.8275C5.59388 62.8275 6.91355 64.3767 6.91355 66.3849C6.91355 68.3931 5.59388 69.9423 3.58568 69.9423C1.57748 69.9423 0.257812 68.3931 0.257812 66.3849C0.257812 64.348 1.57748 62.8275 3.58568 62.8275ZM3.58568 63.3439C1.92175 63.3439 0.860271 64.6349 0.860271 66.3562C0.860271 68.0775 1.92175 69.3685 3.58568 69.3685C5.22093 69.3685 6.31109 68.0775 6.31109 66.3562C6.31109 64.6349 5.22093 63.3439 3.58568 63.3439ZM12.5365 66.9587H11.016V69.7988H10.4422V62.9423H12.9955C14.1717 62.9423 15.0898 63.6882 15.0898 64.9505C15.0898 66.1841 14.2004 66.9013 13.1963 66.93L15.1758 69.7988H14.4586L12.5365 66.9587ZM12.9381 63.4587H11.016V66.4136H12.9381C13.8562 66.4136 14.4586 65.7824 14.4586 64.9218C14.4586 64.0611 13.8562 63.4587 12.9381 63.4587ZM22.9217 68.1062H19.2783L18.5898 69.7988H17.9299L20.7414 62.9423H21.4586L24.2701 69.7988H23.6103L22.9217 68.1062ZM19.4504 67.5611H22.7496L21.1144 63.4874L19.4504 67.5611ZM27.9135 63.8603V69.7988H27.3398V62.9423H27.9422L32.2455 68.7947V62.9423H32.8193V69.7988H32.2455L27.9135 63.8603ZM39.8193 62.8275C40.9668 62.8275 41.7701 63.2865 42.4013 64.0037L41.9709 64.3193C41.4832 63.7455 40.7086 63.3726 39.8193 63.3726C38.2127 63.3726 36.9504 64.6062 36.9504 66.3849C36.9504 68.1636 38.184 69.3972 39.8193 69.3972C40.7373 69.3972 41.4545 68.9382 41.8275 68.5652V66.93H39.2168V66.3849H42.4013V68.7947C41.7988 69.4833 40.8808 69.9423 39.7906 69.9423C37.8398 69.9423 36.3193 68.5078 36.3193 66.3849C36.3193 64.2619 37.8685 62.8275 39.8193 62.8275ZM45.9586 62.9423H50.3193V63.4874H46.5611V66.0406H50.2619V66.5857H46.5611V69.3111H50.3193V69.8562H45.9586V62.9423ZM58.2947 66.3562C58.2947 64.2333 59.8439 62.7988 61.766 62.7988C62.8849 62.7988 63.7168 63.2865 64.2906 64.0037L63.8029 64.3193C63.3726 63.7169 62.6267 63.3152 61.766 63.3152C60.1595 63.3152 58.9258 64.5488 58.9258 66.3275C58.9258 68.1062 60.1595 69.3398 61.766 69.3398C62.598 69.3398 63.3726 68.9382 63.8029 68.3357L64.2906 68.6513C63.6881 69.3972 62.8849 69.8849 61.766 69.8849C59.8439 69.9136 58.2947 68.4792 58.2947 66.3562ZM70.6021 62.8275C72.6103 62.8275 73.9299 64.3767 73.9299 66.3849C73.9299 68.3931 72.6103 69.9423 70.6021 69.9423C68.5939 69.9423 67.2742 68.3931 67.2742 66.3849C67.2742 64.348 68.5939 62.8275 70.6021 62.8275ZM70.6021 63.3439C68.9381 63.3439 67.8767 64.6349 67.8767 66.3562C67.8767 68.0775 68.9381 69.3685 70.6021 69.3685C72.2373 69.3685 73.3275 68.0775 73.3275 66.3562C73.3275 64.6349 72.266 63.3439 70.6021 63.3439ZM77.4586 62.9423H78.0611V67.1595C78.0611 68.5365 78.7783 69.3972 80.1553 69.3972C81.5324 69.3972 82.2496 68.5652 82.2496 67.1595V62.9423H82.8521V67.1882C82.8521 68.8808 81.934 69.9423 80.184 69.9423C78.434 69.9423 77.516 68.8808 77.516 67.1882V62.9423H77.4586ZM87.1553 63.8603V69.7988H86.5816V62.9423H87.184L91.4873 68.7947V62.9423H92.0611V69.7988H91.4873L87.1553 63.8603ZM97.598 63.4587H95.3603V62.9136H100.438V63.4587H98.2004V69.7988H97.598V63.4587ZM105.746 66.8726L103.02 62.9423H103.737L106.061 66.3275L108.385 62.9423H109.102L106.377 66.8726V69.7988H105.774L105.746 66.8726ZM122.672 63.6882L120.176 69.7701H119.946L117.422 63.6882V69.7701H116.848V62.9136H117.709L120.061 68.5939L122.385 62.9136H123.274V69.7701H122.672V63.6882ZM127.032 62.9423H129.213C131.336 62.9423 132.684 64.4914 132.684 66.3849C132.684 68.2783 131.336 69.8275 129.213 69.8275H127.032V62.9423ZM129.241 69.2537C131.049 69.2537 132.082 67.9628 132.082 66.3562C132.082 64.7496 131.049 63.4587 129.241 63.4587H127.635V69.2537H129.241Z" fill="#FFFBF9"/>
<path d="M31.4717 1.4636V0.115234H30.1233C23.9553 0.115234 18.9348 5.13573 18.9348 11.3038V12.6521H20.2831C26.4512 12.6521 31.4717 7.63163 31.4717 1.4636ZM129.759 22.9513C127.808 19.939 125.082 17.8447 121.64 16.6398C119.23 15.7792 115.357 15.3488 109.992 15.3488H102.074L102.619 18.8488H108.529C113.664 18.8488 117.365 19.1931 119.574 19.8816C122.558 20.7997 124.881 22.4636 126.545 24.9021C128.209 27.3406 129.041 30.2956 129.041 33.7382C129.041 37.0374 128.267 39.7915 126.746 42.0865C125.226 44.3816 123.103 45.9308 120.406 46.8202C118.484 47.4226 115.07 47.7382 110.136 47.7382H105.345L105.861 51.1234H115.759C118.254 51.1234 120.722 50.6931 123.045 49.7751C123.476 49.6029 123.935 49.4021 124.336 49.1726C126.804 47.8816 128.812 45.8734 130.361 43.148C131.91 40.4226 132.685 37.2669 132.685 33.6808C132.685 29.521 131.738 25.9349 129.759 22.9513ZM95.0741 15.607L81.3897 45.1275L67.734 15.607H66.4143L60.9061 51.9841H64.4922L68.1069 25.7628L81.0741 51.9841H81.7339L94.6725 25.7628L98.3159 51.9841H101.902L96.3938 15.607H95.0741ZM45.6438 19.9964C48.0823 18.6193 50.7217 17.9308 53.5618 17.9308C56.1725 17.9308 58.5536 18.4472 60.734 19.5087C60.8774 19.5947 61.0208 19.6521 61.1643 19.7382L61.7094 16.0374C59.2422 14.9759 56.4881 14.4308 53.5044 14.4308C47.9676 14.4308 43.3774 16.2095 39.7053 19.7956C38.1561 21.3161 36.9225 22.98 36.0331 24.7874C35.1438 23.0087 33.9389 21.3447 32.4184 19.8529C28.7749 16.2382 24.2422 14.4308 18.82 14.4308C15.4922 14.4308 12.3651 15.2628 9.49625 16.9267C6.6274 18.5906 4.36101 20.8857 2.69707 23.812C1.03314 26.7382 0.201172 29.9226 0.201172 33.3652C0.201172 38.5292 2.03724 42.9185 5.68068 46.5333C9.32412 50.148 13.7995 51.9841 19.1069 51.9841C24.3569 51.9841 28.7749 50.1767 32.4184 46.5046C33.9389 44.9841 35.1151 43.3488 36.0044 41.5702C36.7217 43.062 37.611 44.439 38.7299 45.73C42.3446 49.8898 47.279 51.9841 53.5331 51.9841C54.5372 51.9841 55.5413 51.9267 56.4881 51.7833L57.0044 48.2833C55.9717 48.4841 54.8815 48.5988 53.7626 48.5988C49.2012 48.5988 45.443 47.1357 42.4594 44.2095C39.4758 41.2833 37.984 37.6685 37.984 33.3079C37.984 30.439 38.6438 27.8284 39.9922 25.5046C41.3405 23.2095 43.2053 21.3734 45.6438 19.9964ZM32.2463 40.9677C30.9266 43.2915 29.0905 45.1562 26.7094 46.5046C24.3282 47.8529 21.7749 48.5128 18.9922 48.5128C14.8323 48.5128 11.2749 47.0497 8.34871 44.1234C5.39379 41.1972 3.93068 37.6111 3.93068 33.3652C3.93068 30.4964 4.59052 27.8857 5.93888 25.562C7.25855 23.2382 9.1233 21.3734 11.5044 19.9964C13.8856 18.6193 16.3815 17.9308 19.0208 17.9308C21.7176 17.9308 24.2708 18.6193 26.652 19.9964C29.0618 21.3734 30.9266 23.2095 32.2463 25.5046C33.5659 27.7997 34.2258 30.3816 34.2258 33.1931C34.2258 36.0333 33.5659 38.6439 32.2463 40.9677Z" fill="#FFFBF9"/>
</g>
<defs>
<clipPath id="clip0_359_622">
<rect width="132.828" height="70" fill="white"/>
</clipPath>
</defs>
</svg>
